{"title":"Cagney and Lacey (Season 2 - Complete)","uid":8954814,"size":8967213056,"categoryP":"video","categoryS":"tv_shows","magnet":"?xt=urn:btih:7e90ac5706b0418ee8f22c8ac561574d464bb7f5&amp;dn=Cagney+and+Lacey+%28Season+2+-+Complete%29&amp;tr=udp%3A%2F%2Ftracker.openbittorrent.com%3A80&amp;tr=udp%3A%2F%2Fopen.demonii.com%3A1337&amp;tr=udp%3A%2F%2Ftracker.coppersurfer.tk%3A6969&amp;tr=udp%3A%2F%2Fexodus.desync.com%3A6969","seeders":6,"leechers":1,"uploader":"infidelwarez","files":22,"time":1379973981,"description":"Mary Beth Lacey and Chris Cagney are teamed up as NYPD detectives in this landmark series. Their opposing personalities (one is tough and the other sensitive) mesh to make this one of the great crime-fighting duos of all time.\n\n\n___________________________________________________________________________________\n\nSeries 1 has been uploaded already by user neil1966hardy: https://thepiratebay.se/torrent/6712432/Cagney_and_Lacey___(Season_1_-_Complete)\n___________________________________________________________________________________\n\n\n\nContains all 22 episodes of series two\n\n\nCagney and Lacey S02E22-The Informant.avi\nFormat                                   : AVI\nFormat/Info                              : Audio Video Interleave\nFile size                                : 400 MiB\nDuration                                 : 48mn 57s\nOverall bit rate                         : 1 142 Kbps\nWriting application                      : VirtualDubMod 1.5.4.1 (build 2178/release)\nWriting library                          : VirtualDubMod build 2178/release\n\nVideo\nID                                       : 0\nFormat                                   : MPEG-4 Visual\nFormat profile                           : Advanced Simple@L5\nFormat settings, BVOP                    : 1\nFormat settings, QPel                    : No\nFormat settings, GMC                     : No warppoints\nFormat settings, Matrix                  : Custom\nCodec ID                                 : XVID\nCodec ID/Hint                            : XviD\nDuration                                 : 48mn 57s\nBit rate                                 : 944 Kbps\nWidth                                    : 640 pixels\nHeight                                   : 480 pixels\nDisplay aspect ratio                     : 4:3\nFrame rate                               : 23.976 fps\nColor space                              : YUV\nChroma subsampling                       : 4:2:0\nBit depth                                : 8 bits\nScan type                                : Progressive\nCompression mode                         : Lossy\nBits/(Pixel*Frame)                       : 0.128\nStream size                              : 330 MiB (83%)\nWriting library                          : XviD 1.2.1 (UTC 2008-12-04)\n\nAudio\nID                                       : 1\nFormat                                   : AC-3\nFormat/Info                              : Audio Coding 3\nMode extension                           : CM (complete main)\nFormat settings, Endianness              : Big\nCodec ID                                 : 2000\nDuration                                 : 48mn 57s\nBit rate mode                            : Constant\nBit rate                                 : 192 Kbps\nChannel(s)                               : 2 channels\nChannel positions                        : Front: L R\nSampling rate                            : 48.0 KHz\nBit depth                                : 16 bits\nCompression mode                         : Lossy\nDelay relative to video                  : 18ms\nStream size                              : 67.2 MiB (17%)\nAlignment                                : Split accross interleaves\nInterleave, duration                     : 96 ms (2.30 video frames)\nInterleave, preload duration             : 96 ms\n","torrent":{"xt":"urn:btih:7e90ac5706b0418ee8f22c8ac561574d464bb7f5","amp;dn":"Cagney+and+Lacey+%28Season+2+-+Complete%29","amp;tr":["udp%3A%2F%2Ftracker.openbittorrent.com%3A80","udp%3A%2F%2Fopen.demonii.com%3A1337","udp%3A%2F%2Ftracker.coppersurfer.tk%3A6969","udp%3A%2F%2Fexodus.desync.com%3A6969"],"infoHash":"7e90ac5706b0418ee8f22c8ac561574d464bb7f5","infoHashBuffer":{"type":"Buffer","data":[126,144,172,87,6,176,65,142,232,242,44,138,197,97,87,77,70,75,183,245]},"announce":[],"urlList":[]}}